<?xml version="1.0" encoding="UTF-8" standalone="no"?>
<!-- Created with Inkscape (http://www.inkscape.org/) -->

<svg
   width="303.138mm"
   height="66.156998mm"
   viewBox="-19 2 303.138 66.156997"
   version="1.1"
   id="svg1"
   inkscape:version="1.3.2 (091e20e, 2023-11-25)"
   sodipodi:docname="logo-horo.svg"
   inkscape:export-filename="logo-horo.png"
   inkscape:export-xdpi="96"
   inkscape:export-ydpi="96"
   xmlns:inkscape="http://www.inkscape.org/namespaces/inkscape"
   xmlns:sodipodi="http://sodipodi.sourceforge.net/DTD/sodipodi-0.dtd"
   xmlns="http://www.w3.org/2000/svg"
   xmlns:svg="http://www.w3.org/2000/svg">
  <sodipodi:namedview
     id="namedview1"
     pagecolor="#ffffff"
     bordercolor="#000000"
     borderopacity="0.25"
     inkscape:showpageshadow="2"
     inkscape:pageopacity="0.0"
     inkscape:pagecheckerboard="false"
     inkscape:deskcolor="#d1d1d1"
     inkscape:document-units="mm"
     labelstyle="default"
     inkscape:zoom="2.860013"
     inkscape:cx="241.95694"
     inkscape:cy="93.531044"
     inkscape:window-width="1392"
     inkscape:window-height="1212"
     inkscape:window-x="139"
     inkscape:window-y="25"
     inkscape:window-maximized="0"
     inkscape:current-layer="g2"
     inkscape:export-bgcolor="#ffffffff" />
  <defs
     id="defs1">
    <clipPath
       clipPathUnits="userSpaceOnUse"
       id="clipPath10">
      <path
         d="M 0,0 H 1024 V 768 H 0 Z"
         transform="matrix(1,0,0,-1,-431.50081,480.10251)"
         id="path10" />
    </clipPath>
    <clipPath
       clipPathUnits="userSpaceOnUse"
       id="clipPath8">
      <path
         d="M 0,0 H 1024 V 768 H 0 Z"
         transform="matrix(1,0,0,-1,-414.35401,507.15361)"
         id="path8" />
    </clipPath>
    <clipPath
       clipPathUnits="userSpaceOnUse"
       id="clipPath6">
      <path
         d="M 0,0 H 1024 V 768 H 0 Z"
         transform="matrix(1,0,0,-1,-390.40931,537.00001)"
         id="path6" />
    </clipPath>
    <clipPath
       clipPathUnits="userSpaceOnUse"
       id="clipPath3">
      <path
         d="M 0,0 H 1024 V 768 H 0 Z"
         transform="matrix(1,0,0,-1,-393.90931,370.77961)"
         id="path3" />
    </clipPath>
    <clipPath
       clipPathUnits="userSpaceOnUse"
       id="clipPath4">
      <path
         d="M 0,0 H 1024 V 768 H 0 Z"
         transform="matrix(1,0,0,-1,-501.98131,370.77961)"
         id="path4" />
    </clipPath>
  </defs>
  <g
     id="g2"
     inkscape:label="logo"
     transform="translate(-7.0000049,-12.870833)">
    <g
       id="g9"
       inkscape:label="Loop3"
       transform="matrix(0.26458333,0,0,0.26458333,-137.37494,-56.256312)">
      <g
         id="g8">
        <path
           id="path9"
           style="color:#000000;fill:#85888d icc-color(sRGB-IEC61966-2, 0.1, 0.52156067, 0.5333252, 0.55293274);-inkscape-stroke:none"
           d="M 80.500663 -1.033588 C 65.396795 -1.033588 50.300468 0.71429696 37.06365 4.1929747 L 41.283865 4.1929747 L 41.283865 5.2330138 C 53.404312 2.4393952 66.948603 1.0333066 80.500663 1.0333066 C 100.9999 1.0333066 121.49809 4.2293471 137.0407 10.620709 C 144.81201 13.816389 150.5954 17.496539 154.39324 21.34776 C 158.19109 25.198982 159.99774 29.175074 159.99774 33.101667 C 159.99774 37.028261 158.19109 41.005817 154.39324 44.857039 C 150.5954 48.70826 144.81201 52.388409 137.0407 55.58409 C 105.95548 68.366814 55.042903 68.366814 23.957692 55.58409 C 16.186392 52.388409 10.402999 48.70826 6.6051526 44.857039 C 2.8073059 41.005817 1.0006602 37.028262 1.0006602 33.101667 C 1.0006602 29.175073 2.8073059 25.198982 6.6051526 21.34776 C 7.9748785 19.958785 9.6129863 18.593462 11.499196 17.263776 L 11.499196 14.849713 C 9.0436728 16.478204 6.9222477 18.177586 5.1813244 19.942975 C 1.1199667 24.061411 -1.0003164 28.556605 -1.0003164 33.101667 C -1.0003164 37.646731 1.1199667 42.143388 5.1813244 46.261824 C 9.2426822 50.38026 15.250329 54.166211 23.197438 57.434188 C 54.985882 70.506092 106.01251 70.506092 137.80096 57.434188 C 145.74807 54.166211 151.75571 50.38026 155.81707 46.261824 C 159.87843 42.143388 161.99871 37.646732 161.99871 33.101667 C 161.99871 28.556604 159.87843 24.061411 155.81707 19.942975 C 151.75571 15.82454 145.74807 12.040051 137.80096 8.7720764 C 121.90673 2.2361242 101.20441 -1.033588 80.500663 -1.033588 z "
           transform="matrix(1.3333333,0,0,1.3333333,575.3344,383.86333)" />
      </g>
      <g
         id="g12" />
      <g
         id="g13">
        <path
           id="path14"
           d="m 477.7412,479.7412 c 2.6185,-2.6185 2.6185,-6.8639 0,-9.4824 -2.6185,-2.6185 -6.8639,-2.6185 -9.4824,0 -2.6185,2.6185 -2.6185,6.8639 0,9.4824 2.6185,2.6185 6.8639,2.6185 9.4824,0 z"
           style="fill:#141414 icc-color(sRGB-IEC61966-2, 0.1, 0.07843018, 0.07843018, 0.07843018);fill-opacity:1;fill-rule:nonzero;stroke:none"
           transform="matrix(1.3333333,0,0,-1.3333333,0,1024)" />
      </g>
    </g>
    <g
       id="g7"
       inkscape:label="Loop2"
       transform="matrix(0.26458333,0,0,0.26458333,-137.37494,-56.256312)">
      <g
         id="g6">
        <path
           id="path7"
           style="color:#000000;fill:#85888d icc-color(sRGB-IEC61966-2, 0.1, 0.52156067, 0.5333252, 0.55293274);-inkscape-stroke:none"
           d="M 107.53809 -0.81842836 L 107.53809 1.2484663 C 129.03147 2.142528 149.92811 5.948644 166.31202 12.685967 C 175.75737 16.570046 182.79433 21.0465 187.42921 25.746514 C 192.06407 30.446527 194.29053 35.325866 194.29053 40.154718 C 194.29053 44.983569 192.06407 49.859977 187.42921 54.559992 C 182.79433 59.260006 175.75737 63.736459 166.31202 67.620539 C 128.53061 83.156857 66.761417 83.156858 28.979981 67.620539 C 19.534623 63.736459 12.496203 59.260006 7.8613275 54.559992 C 3.2264524 49.859977 0.99999907 44.983569 0.99999907 40.154718 C 0.99999907 35.325867 3.2264524 30.446528 7.8613275 25.746514 C 12.496203 21.0465 19.534623 16.570046 28.979981 12.685967 C 42.80554 7.0006819 59.85446 3.417418 77.75342 1.8929975 L 77.75342 -0.17389708 C 59.634899 1.3704151 42.345287 5.0266167 28.218262 10.835869 C 18.597096 14.792243 11.335885 19.3745 6.4374993 24.341729 C 1.5391132 29.308957 -0.99951272 34.707397 -0.99951272 40.154718 C -0.99951272 45.602038 1.5391132 50.997548 6.4374993 55.964777 C 11.335885 60.932005 18.597096 65.514262 28.218262 69.470637 C 66.702932 85.296136 128.58763 85.296136 167.07227 69.470637 C 176.69343 65.514262 183.95465 60.932005 188.85303 55.964777 C 193.75141 50.997548 196.29151 45.602038 196.29151 40.154718 C 196.29151 34.707397 193.75141 29.308957 188.85303 24.341729 C 183.95465 19.3745 176.69343 14.792243 167.07227 10.835869 C 150.36251 3.9645493 129.23951 0.08593468 107.53809 -0.81842836 z "
           transform="matrix(1.3333333,0,0,1.3333333,552.472,347.7952)" />
      </g>
      <g
         id="g11" />
      <g
         id="g14">
        <path
           id="path15"
           d="m 529.7412,510.7412 c 2.6185,-2.6185 2.6185,-6.8639 0,-9.4824 -2.6185,-2.6185 -6.8639,-2.6185 -9.4824,0 -2.6185,2.6185 -2.6185,6.8639 0,9.4824 2.6185,2.6185 6.8639,2.6185 9.4824,0 z"
           style="fill:#141414 icc-color(sRGB-IEC61966-2, 0.1, 0.07843018, 0.07843018, 0.07843018);fill-opacity:1;fill-rule:nonzero;stroke:none"
           transform="matrix(1.3333333,0,0,-1.3333333,0,1024)" />
      </g>
    </g>
    <g
       id="g5"
       inkscape:label="Loop1"
       transform="matrix(0.26458333,0,0,0.26458333,-137.37494,-56.256312)">
      <g
         id="g4">
        <path
           id="path5"
           style="color:#000000;fill:#85888d icc-color(sRGB-IEC61966-2, 0.1, 0.52156067, 0.5333252, 0.55293274);-inkscape-stroke:none"
           d="M 121.58924 -1.0335522 C 90.369273 -1.0335522 59.150116 3.884972 35.2323 13.720355 C 23.273389 18.638048 14.258542 24.330035 8.1912836 30.482562 C 2.1240249 36.635089 -1.0006113 43.292862 -1.0006113 50.000141 C -1.0006113 56.70742 2.1240249 63.365193 8.1912836 69.51772 C 14.258542 75.670247 23.273389 81.362235 35.2323 86.279928 C 83.067932 105.95074 160.11348 105.95074 207.9491 86.279928 C 219.90801 81.362235 228.92287 75.670247 234.99012 69.51772 C 241.05738 63.365193 244.18202 56.70742 244.18202 50.000141 C 244.18202 43.292862 241.05738 36.635089 234.99012 30.482562 C 228.92287 24.330035 219.90801 18.638048 207.9491 13.720355 C 202.15469 11.337602 195.92422 9.2505356 189.37635 7.4449638 L 189.37635 9.5367607 C 195.65798 11.282049 201.63532 13.287356 207.18738 15.570452 C 218.97048 20.41585 227.76255 26.002034 233.56629 31.887347 C 239.37004 37.77266 242.18104 43.911331 242.18104 50.000141 C 242.18104 56.088951 239.37004 62.227623 233.56629 68.112935 C 227.76255 73.998248 218.97048 79.584433 207.18738 84.42983 C 160.055 103.81146 83.126416 103.81146 35.994019 84.42983 C 24.210917 79.584433 15.41886 73.998248 9.6151118 68.112935 C 3.8113641 62.227623 1.0003653 56.088951 1.0003653 50.000141 C 1.0003653 43.911331 3.8113641 37.77266 9.6151118 31.887347 C 15.41886 26.002034 24.210917 20.41585 35.994019 15.570452 C 59.560217 5.8796596 90.57378 1.0333424 121.58924 1.0333424 C 134.44355 1.0333424 147.26612 1.9144958 159.59022 3.579241 L 159.59022 1.5123464 C 147.25242 -0.15305428 134.43545 -1.0335522 121.58924 -1.0335522 z "
           transform="matrix(1.3333333,0,0,1.3333333,520.54573,308)" />
      </g>
      <g
         id="g10" />
      <g
         id="g15">
        <path
           id="path16"
           d="m 587.7412,532.946 c 2.6185,-2.6185 2.6185,-6.8639 0,-9.4824 -2.6185,-2.6185 -6.8639,-2.6185 -9.4824,0 -2.6185,2.6185 -2.6185,6.8639 0,9.4824 2.6185,2.6185 6.8639,2.6185 9.4824,0 z"
           style="fill:#141414 icc-color(sRGB-IEC61966-2, 0.1, 0.07843018, 0.07843018, 0.07843018);fill-opacity:1;fill-rule:nonzero;stroke:none"
           transform="matrix(1.3333333,0,0,-1.3333333,0,1024)" />
      </g>
    </g>
  </g>
  <g
     id="g3"
     inkscape:label="oceanparcels text"
     transform="matrix(0.56397564,0,0,0.56397564,-208.63885,-250.52753)">
    <text
       id="text3"
       xml:space="preserve"
       transform="matrix(1.3333333,0,0,1.3333333,525.2124,529.6272)"
       clip-path="url(#clipPath3)"
       style="stroke-width:1.00063;stroke-dasharray:none"
       inkscape:label="ocean"><tspan
         style="font-variant:normal;font-weight:300;font-size:36px;font-family:Helvetica;writing-mode:lr-tb;fill:#000000 icc-color(sRGB-IEC61966-2, 0.1, 0, 0, 0);fill-opacity:1;fill-rule:nonzero;stroke:none;stroke-width:1.00063;stroke-dasharray:none"
         sodipodi:role="line"
         id="tspan3"
         x="0"
         y="0">Ocean</tspan></text>
    <text
       id="text4"
       xml:space="preserve"
       transform="matrix(1.3333333,0,0,1.3333333,669.3084,529.6272)"
       clip-path="url(#clipPath4)"
       inkscape:label="parcels"><tspan
         style="font-variant:normal;font-weight:700;font-size:36px;font-family:Helvetica;writing-mode:lr-tb;fill:#000000 icc-color(sRGB-IEC61966-2, 0.1, 0, 0, 0);fill-opacity:1;fill-rule:nonzero;stroke:none"
         id="tspan4"
         sodipodi:role="line"
         x="0"
         y="0">Parcels</tspan></text>
  </g>
</svg>
